<?xml version="1.0" standalone="no"?>
<!DOCTYPE svg PUBLIC "-//W3C//DTD SVG 20010904//EN"
 "http://www.w3.org/TR/2001/REC-SVG-20010904/DTD/svg10.dtd">
<svg version="1.0" xmlns="http://www.w3.org/2000/svg"
 width="512.000000pt" height="512.000000pt" viewBox="0 0 512.000000 512.000000"
 preserveAspectRatio="xMidYMid meet">
<metadata>
Created by potrace 1.11, written by Peter Selinger 2001-2013
</metadata>
<g transform="translate(0.000000,512.000000) scale(0.100000,-0.100000)"
fill="#000000" stroke="none">
<path d="M1900 4630 c-25 -4 -67 -10 -95 -15 -27 -4 -93 -20 -147 -36 -266
-79 -463 -219 -546 -389 l-37 -75 -3 -375 c-1 -206 -4 -380 -7 -387 -2 -6 -19
-14 -37 -18 -81 -18 -286 -100 -328 -132 -47 -35 -179 -161 -240 -229 -112
-123 -186 -208 -267 -307 -40 -47 -40 -48 -31 -105 12 -86 55 -194 101 -259
33 -48 42 -69 48 -121 5 -49 15 -75 42 -115 47 -70 55 -88 50 -112 -13 -64 -5
-103 36 -187 40 -81 43 -93 44 -177 2 -73 6 -95 23 -118 23 -33 102 -74 177
-92 28 -8 67 -24 84 -38 57 -42 180 -94 250 -106 37 -7 82 -22 98 -33 17 -12
55 -34 85 -49 30 -15 68 -39 84 -52 65 -55 202 -110 295 -119 97 -10 206 -42
221 -65 9 -13 153 -86 185 -93 17 -3 55 -9 85 -12 30 -4 60 -10 65 -14 23 -18
138 -50 180 -50 32 0 51 -6 65 -20 13 -13 35 -20 63 -21 54 -2 78 -5 110 -13
24 -6 69 -11 167 -21 19 -2 38 -4 42 -4 4 -1 1 -16 -7 -34 -15 -38 -10 -75 14
-95 34 -27 145 11 249 85 l24 16 -7 -34 c-18 -99 -4 -129 59 -129 51 0 109 50
198 169 l77 103 0 -73 c0 -96 11 -131 44 -147 24 -12 33 -11 65 5 38 19 86 79
97 123 4 13 18 48 31 76 22 47 31 55 100 90 164 82 237 192 245 374 3 45 8 59
30 77 45 38 63 150 35 217 -12 30 -12 36 2 50 11 11 16 34 17 75 0 52 -4 64
-33 100 -31 39 -32 43 -21 83 6 24 13 52 15 63 4 23 24 128 24 129 0 1 24 1
53 2 152 3 355 52 505 121 86 40 195 119 252 181 51 56 115 172 125 227 3 17
6 234 6 483 0 507 0 512 -69 617 -91 140 -257 255 -474 328 -57 20 -121 39
-143 43 -22 4 -42 8 -45 9 -3 1 -30 5 -60 9 -30 5 -64 10 -75 12 -29 6 -274 7
-310 1 -16 -3 -50 -9 -75 -12 -25 -4 -54 -9 -65 -12 -11 -2 -33 -7 -49 -9
-137 -25 -412 -154 -465 -218 -8 -9 -16 -16 -20 -16 -4 0 -6 71 -5 158 1 131
-2 167 -18 217 -73 221 -333 399 -701 476 -78 17 -142 22 -272 24 -93 1 -190
-1 -215 -5z"/>
</g>
</svg>
