<svg enable-background="new 0 0 396.338 396.338" height="512" viewBox="0 0 396.338 396.338" width="512" xmlns="http://www.w3.org/2000/svg"><path d="m134.345 172.389c-10.31 9.53-24.09 15.34-39.23 15.34-4.64 0-9.15-.56-13.47-1.59-2.2 11.31-7.69 21.44-15.45 29.35-5.73 5.85-12.69 10.49-20.47 13.5 0 .05.01.11.01.17 0 14.05-5.01 26.93-13.35 36.95-24.52-23.25-27.81-61.23-8.34-88.29 2.73-3.8 5.91-7.39 9.55-10.69l.76-.69c7.81-7.08 16.87-12 26.43-14.75 20.33-5.88 42.95-1.99 60.71 11.68 4.14 3.19 8.43 6.2 12.85 9.02z" fill="#9ad14b"/><path d="m388.835 100.049c-4.26 118.37-101.55 213.03-220.96 213.03-15.8 0-31.21-1.66-46.06-4.8-30.03-6.37-57.8-18.83-81.97-36.03-2.67-1.9-5.16-3.95-7.46-6.14 8.34-10.02 13.35-22.9 13.35-36.95 0-.06-.01-.12-.01-.17 18.3-7.08 32.09-23.17 35.92-42.85 4.32 1.03 8.83 1.59 13.47 1.59 15.14 0 28.92-5.81 39.23-15.34 27.46 17.52 60.07 27.67 95.06 27.67 70.16 0 130.79-40.82 159.43-100.01z" fill="#f95428"/><path d="m45.725 228.989c0 .05.01.11.01.17 0 14.05-5.01 26.93-13.35 36.95-24.52-23.25-27.81-61.23-8.34-88.29 2.73-3.8 5.91-7.39 9.55-10.69l.76-.69c7.81-7.08 16.87-12 26.43-14.75l.37 1.75s-24 32 5 62c.02.02.03.03.04.05-5.73 5.85-12.69 10.49-20.47 13.5z" fill="#90bc42"/><path d="m121.815 308.279c-30.03-6.37-57.8-18.83-81.97-36.03-2.67-1.9-5.16-3.95-7.46-6.14 8.34-10.02 13.35-22.9 13.35-36.95 0-.06-.01-.12-.01-.17 18.3-7.08 32.09-23.17 35.92-42.85 4.32 1.03 8.83 1.59 13.47 1.59 0 0-37.06 87.59 26.7 120.55z" fill="#e54728"/><path d="m229.405 230.559c-25.702 0-50.823-4.662-74.666-13.856-3.865-1.49-5.79-5.831-4.3-9.696 1.491-3.865 5.829-5.791 9.696-4.299 22.114 8.527 45.42 12.851 69.27 12.851 36.875 0 72.713-10.461 103.64-30.253 1.078-.69 2.146-1.388 3.208-2.098 3.445-2.301 8.102-1.377 10.403 2.066 2.303 3.443 1.378 8.101-2.065 10.403-1.146.766-2.298 1.519-3.46 2.263-33.345 21.339-71.98 32.619-111.726 32.619z" fill="#fff"/><circle cx="135.817" cy="199.954" fill="#fff" r="7.5"/><path d="m390.646 92.769c-3.445-.855-7.014.818-8.559 4.012-13.683 28.271-34.928 52.182-61.439 69.148-27.219 17.418-58.771 26.625-91.244 26.625-37.76 0-73.491-12.146-103.33-35.125-29.126-22.429-69.817-20.974-96.754 3.459l-.76.689c-1.396 1.266-2.733 2.581-4.019 3.934-7.415-12.676-18.262-41.138 2.626-78.593 2.018-3.617.721-8.186-2.896-10.203-3.62-2.018-8.186-.72-10.203 2.897-17.52 31.412-15.512 57.676-10.743 74.177 3.241 11.216 8.158 19.548 11.518 24.361-7.862 12.884-11.699 27.954-10.782 43.453 1.351 22.817 12.808 43.504 31.435 56.759 38.813 27.617 84.59 42.215 132.38 42.215 59.608 0 116.031-22.812 158.874-64.233 42.735-41.316 67.447-96.727 69.583-156.024.128-3.547-2.245-6.696-5.687-7.551zm-371.611 127.947c-1.079-18.245 6.065-35.751 19.603-48.028l.76-.689c11.324-10.271 25.698-15.458 40.181-15.458 13.083 0 26.253 4.232 37.343 12.772 1.521 1.171 3.061 2.308 4.609 3.427-7.881 4.871-16.987 7.49-26.412 7.49-3.916 0-7.862-.468-11.729-1.391-1.984-.476-4.083-.117-5.802.989s-2.911 2.866-3.301 4.873c-3.272 16.808-15.254 31.096-31.27 37.289-2.89 1.118-4.795 3.897-4.795 6.995 0 .133.004.266.01.4-.04 8.714-2.35 17.24-6.619 24.72-7.404-9.475-11.847-21.039-12.578-33.389zm297.289 24.843c-40.031 38.702-92.751 60.017-148.448 60.017-44.655 0-87.424-13.637-123.683-39.437-.553-.394-1.082-.812-1.62-1.222 6.038-9.228 9.661-19.894 10.481-30.937 16.22-7.792 28.678-22.166 34.12-39.237 2.643.325 5.297.489 7.943.489 14.538 0 28.495-4.798 39.89-13.604 28.433 17.017 60.67 25.927 94.396 25.927 35.345 0 69.692-10.025 99.329-28.991 18.987-12.151 35.492-27.576 48.804-45.475-8.29 42.629-29.41 81.724-61.212 112.47z" fill="#333"/></svg>